<svg width="63" height="61" viewBox="0 0 63 61" fill="none" xmlns="http://www.w3.org/2000/svg">
<g clip-path="url(#clip0)">
<path d="M0.00252533 28.0345C0.00252533 31.3403 0.993668 34.2813 2.97595 36.8576C4.95824 39.4339 7.5428 41.193 10.7296 42.1349C10.9952 42.1903 11.2418 42.1164 11.4694 41.9133L14.9977 37.6748C12.3041 37.6748 9.99932 36.733 8.08342 34.8492C6.16753 32.9655 5.20958 30.6939 5.20958 28.0345C5.20958 25.5413 6.0632 23.3759 7.77043 21.5384C9.47766 19.7008 11.6022 18.6804 14.1441 18.4773L15.7375 18.2834C16.06 18.2834 16.2212 18.1541 16.2212 17.8955L16.4489 16.2611C16.8282 13.0107 18.2367 10.319 20.6743 8.18597C23.1118 6.05291 25.9904 4.98638 29.31 4.98638C32.6486 4.98638 35.5556 6.06214 38.0311 8.21367C40.5066 10.3652 41.8961 13.0477 42.1996 16.2611L42.4272 17.9787C42.5031 18.3111 42.7213 18.4773 43.0817 18.4773H48.0042C50.7358 18.4773 53.0595 19.4099 54.9754 21.2752C56.8913 23.1405 57.8492 25.3936 57.8492 28.0345C57.8492 30.4908 56.9956 32.6377 55.2884 34.4753C53.5811 36.3128 51.485 37.3794 49.0001 37.6748C48.6397 37.6748 48.1465 37.7302 47.5205 37.8411C46.9324 37.8965 46.5151 38.1181 46.2685 38.5059L39.0981 46.7611C38.6618 47.2967 38.4959 47.9154 38.6002 48.6172C38.7045 49.319 39.0223 49.8822 39.5534 50.307C39.8759 50.6764 40.4449 50.861 41.2606 50.861C42.0573 50.861 42.6738 50.5194 43.1101 49.8361L49.5407 42.6335C53.3156 42.2642 56.5024 40.6759 59.1012 37.8688C61.7 35.0616 62.9994 31.7835 62.9994 28.0345C62.9994 26.04 62.6058 24.1378 61.8185 22.3279C61.0313 20.518 59.969 18.9621 58.6317 17.6601C57.2944 16.3581 55.701 15.3193 53.8515 14.5436C52.002 13.7679 50.0529 13.3801 48.0042 13.3801H47.0368C46.0314 9.46488 43.8831 6.25606 40.592 3.75363C37.3008 1.25121 33.5401 0 29.31 0C26.4836 0 23.8231 0.586361 21.3287 1.75908C18.8342 2.9318 16.7334 4.56623 15.0262 6.66235C13.3189 8.75848 12.1713 11.1455 11.5832 13.8233C8.16878 14.5621 5.38505 16.2565 3.23204 18.9067C1.07903 21.5568 0.00252533 24.5995 0.00252533 28.0345ZM10.2744 51.7198C10.2744 51.9045 10.3313 52.2 10.4451 52.6063C10.7107 53.2342 11.1564 53.6682 11.7824 53.9083C12.4463 54.2038 13.1198 54.2222 13.8026 53.9637C14.4855 53.7051 14.9503 53.2619 15.1969 52.634C15.5004 51.9876 15.5194 51.3504 15.2538 50.7225C14.9882 50.0946 14.5235 49.6698 13.8596 49.4482C13.1767 49.1343 12.5222 49.1066 11.8962 49.3651C11.2703 49.6237 10.8055 50.0854 10.502 50.7502C10.3502 51.0642 10.2744 51.3874 10.2744 51.7198ZM15.8798 44.5173V44.822C15.9367 45.4868 16.2402 46.0409 16.7903 46.4841C17.4732 46.8535 18.0992 47.0381 18.6683 47.0381C19.3512 47.0381 19.9677 46.715 20.5178 46.0686L27.5743 37.8965C28.0106 37.3794 28.2098 36.733 28.1718 35.9573C28.096 35.3294 27.8162 34.8031 27.3325 34.3783C26.8487 33.9535 26.3223 33.7411 25.7533 33.7411C25.5825 33.7411 25.4403 33.7504 25.3265 33.7688C24.6246 33.8981 24.0555 34.2213 23.6192 34.7384L16.4489 42.9382C16.0695 43.363 15.8798 43.8893 15.8798 44.5173ZM18.213 58.4514C18.213 58.8023 18.2889 59.1163 18.4406 59.3933C18.6872 60.0212 19.133 60.4829 19.778 60.7784C20.1004 60.9261 20.4324 61 20.7738 61C21.1532 61 21.4662 60.9261 21.7128 60.7784C22.4147 60.5014 22.8889 60.0951 23.1355 59.5595C23.439 58.9131 23.4627 58.2575 23.2066 57.5926C22.9506 56.9278 22.5 56.4753 21.8551 56.2352C21.1912 55.9398 20.513 55.9213 19.8206 56.1798C19.1283 56.4384 18.6683 56.8816 18.4406 57.5095C18.2889 57.7866 18.213 58.1005 18.213 58.4514ZM23.2778 51.5259V51.8583C23.3537 52.5047 23.6667 53.0449 24.2168 53.4789C24.7669 53.9129 25.3265 54.1299 25.8955 54.1299C26.5784 54.1299 27.2139 53.8067 27.8019 53.1603L41.0045 37.6748C41.346 37.3055 41.5167 36.7976 41.5167 36.1512V35.7911C41.4408 35.1263 41.1658 34.5999 40.6915 34.2121C40.2173 33.8242 39.6862 33.6303 39.0981 33.6303H38.6998C37.9979 33.6673 37.4383 33.972 37.021 34.5445L23.8184 49.9192C23.458 50.4363 23.2778 50.9718 23.2778 51.5259ZM33.948 54.9332C33.948 55.1918 34.0049 55.4873 34.1187 55.8197C34.3843 56.4661 34.849 56.9278 35.5129 57.2048C35.9303 57.3156 36.2433 57.371 36.4519 57.371C36.8882 57.371 37.2297 57.2972 37.4763 57.1494C38.1592 56.8909 38.6239 56.4753 38.8705 55.9028C39.174 55.4042 39.193 54.7486 38.9274 53.936C38.6808 53.3265 38.235 52.8925 37.5901 52.634L36.5088 52.3569C36.2433 52.4124 35.9208 52.4862 35.5414 52.5786C34.8775 52.8186 34.4222 53.2527 34.1756 53.8806C34.0239 54.2315 33.948 54.5824 33.948 54.9332Z" fill="#6A5F5F"/>
</g>
<defs>
<clipPath id="clip0">
<rect width="63" height="61" fill="white"/>
</clipPath>
</defs>
</svg>
