<svg width="73" height="50" viewBox="0 0 73 50" fill="none" xmlns="http://www.w3.org/2000/svg">
<path d="M0.000350952 19.4615C0.000350952 20.0977 0.20464 20.5862 0.613218 20.9271C1.0445 21.3361 1.55522 21.5406 2.14539 21.5406H39.9048C40.5404 21.5406 41.0965 21.7678 41.5732 22.2222C42.0499 22.6767 42.2882 23.2334 42.2882 23.8923C42.2882 24.5512 42.0499 25.1193 41.5732 25.5965C41.0965 26.0736 40.5404 26.3122 39.9048 26.3122C39.2466 26.3122 38.6791 26.0623 38.2024 25.5624C37.7484 25.1761 37.2604 24.983 36.7383 24.983C36.1482 24.983 35.6545 25.1761 35.2572 25.5624C34.86 25.9486 34.6614 26.4258 34.6614 26.9939C34.6614 27.5846 34.8657 28.0845 35.2743 28.4935C36.5681 29.7887 38.1116 30.4363 39.9048 30.4363C41.698 30.4363 43.2245 29.8 44.4843 28.5276C45.7441 27.2552 46.374 25.7101 46.374 23.8923C46.374 22.0972 45.7441 20.5578 44.4843 19.274C43.2245 17.9902 41.698 17.3483 39.9048 17.3483H2.14539C1.55522 17.3483 1.05017 17.5585 0.630242 17.9789C0.210315 18.3992 0.000350952 18.8934 0.000350952 19.4615ZM0.000350952 12.0995C0.000350952 12.713 0.20464 13.1902 0.613218 13.531C1.0445 13.9173 1.55522 14.1104 2.14539 14.1104H52.2984C54.0916 14.1104 55.6237 13.4742 56.8949 12.2018C58.166 10.9293 58.8016 9.39559 58.8016 7.60054C58.8016 5.80549 58.166 4.27743 56.8949 3.01636C55.6237 1.75528 54.0916 1.12474 52.2984 1.12474C50.5279 1.12474 48.9957 1.73824 47.7019 2.96523C47.316 3.41967 47.123 3.93092 47.123 4.49897C47.123 5.08975 47.316 5.57259 47.7019 5.94751C48.0877 6.32242 48.5758 6.50988 49.1659 6.50988C49.7107 6.50988 50.2101 6.31674 50.664 5.93047C51.0953 5.49875 51.6401 5.28289 52.2984 5.28289C52.9339 5.28289 53.49 5.50443 53.9667 5.94751C54.4434 6.39059 54.6817 6.9416 54.6817 7.60054C54.6817 8.25948 54.4434 8.82754 53.9667 9.3047C53.49 9.78186 52.9339 10.0204 52.2984 10.0204H2.14539C1.55522 10.0204 1.05017 10.2249 0.630242 10.6339C0.210315 11.0429 0.000350952 11.5315 0.000350952 12.0995ZM47.1911 41.8882C47.1911 44.5467 48.2296 46.5633 50.3065 47.938C52.3835 49.3126 55.1811 50 58.6994 50C60.8558 50 62.7625 49.7841 64.4195 49.3524C66.0765 48.9207 67.3704 48.3867 68.301 47.7505C69.2317 47.1143 69.9864 46.3588 70.5652 45.484C71.144 44.6092 71.5242 43.8082 71.7058 43.0811C71.8874 42.354 71.9782 41.6155 71.9782 40.8657C71.9782 39.366 71.5469 38.0766 70.6844 36.9973C69.8218 35.918 68.6869 35.2306 67.2796 34.9352L67.3477 34.833V34.8671C68.982 34.6399 70.3325 33.9184 71.3994 32.7028C72.4662 31.4872 72.9996 30.05 72.9996 28.3913C72.9996 27.0052 72.6819 25.818 72.0463 24.8296C71.4107 23.8412 70.5482 23.097 69.4586 22.5971C68.3691 22.0972 67.2569 21.7394 66.1219 21.5235C64.987 21.3077 63.7612 21.1997 62.4447 21.1997C60.7196 21.1997 59.1647 21.3701 57.7801 21.711C56.3955 22.0518 55.2719 22.5006 54.4093 23.0573C53.5468 23.6139 52.8318 24.2615 52.2643 25C51.6968 25.7385 51.2996 26.4713 51.0726 27.1984C50.8456 27.9255 50.7321 28.6753 50.7321 29.4478C50.7321 30.6976 51.0613 31.7882 51.7195 32.7198C52.3778 33.6514 53.2858 34.299 54.4434 34.6626V34.7648C52.4005 34.992 50.6811 35.7362 49.2851 36.9973C47.8891 38.2583 47.1911 39.8887 47.1911 41.8882ZM54.886 41.0702C54.886 39.7978 55.3967 38.8662 56.4182 38.2754C57.4396 37.6846 58.6654 37.3892 60.0954 37.3892C61.5708 37.3892 62.6433 37.7244 63.3129 38.3947C63.9826 39.065 64.3174 39.7864 64.3174 40.559V41.0361C64.3174 42.0586 63.8577 42.8312 62.9384 43.3538C62.0191 43.8764 60.8445 44.1377 59.4144 44.1377L59.5166 44.1036C59.0172 44.1036 58.5292 44.0695 58.0525 44.0014C57.5758 43.9332 57.0821 43.7969 56.5714 43.5924C56.0607 43.3879 55.6521 43.0698 55.3457 42.638C55.0392 42.2063 54.886 41.6837 54.886 41.0702ZM57.6439 29.8909C57.6439 28.7321 58.0922 27.8914 58.9888 27.3688C59.8854 26.8462 60.9693 26.5849 62.2404 26.5849C63.33 26.5849 64.2549 26.8291 65.0154 27.3176C65.7758 27.8062 66.156 28.573 66.156 29.6183C66.156 29.8909 66.0992 30.175 65.9857 30.4703C65.8722 30.7657 65.6679 31.0895 65.3729 31.4417C65.0778 31.7939 64.6011 32.0836 63.9428 32.3108C63.2846 32.5381 62.4901 32.6517 61.5595 32.6517C60.1067 32.6517 59.091 32.3733 58.5121 31.8166C57.9333 31.2599 57.6439 30.618 57.6439 29.8909Z" fill="#6A5F5F"/>
</svg>
