<svg width="73" height="49" viewBox="0 0 73 49" fill="none" xmlns="http://www.w3.org/2000/svg">
<path d="M0 18.5281C0 19.1665 0.205056 19.6567 0.615169 19.9987C1.04806 20.4091 1.56071 20.6143 2.15309 20.6143H40.0543C40.6923 20.6143 41.2505 20.8423 41.7289 21.2983C42.2074 21.7543 42.4466 22.3129 42.4466 22.9741C42.4466 23.6353 42.2074 24.2053 41.7289 24.6841C41.2505 25.1629 40.6923 25.4023 40.0543 25.4023C39.3936 25.4023 38.824 25.1515 38.3455 24.6499C37.8898 24.2623 37.4 24.0685 36.8759 24.0685C36.2836 24.0685 35.788 24.2623 35.3893 24.6499C34.9906 25.0375 34.7912 25.5163 34.7912 26.0863C34.7912 26.6791 34.9963 27.1806 35.4064 27.591C36.7051 28.8906 38.2544 29.5404 40.0543 29.5404C41.8542 29.5404 43.3865 28.902 44.651 27.6252C45.9155 26.3485 46.5478 24.7981 46.5478 22.9741C46.5478 21.1729 45.9155 19.6282 44.651 18.34C43.3865 17.0518 41.8542 16.4077 40.0543 16.4077H2.15309C1.56071 16.4077 1.05376 16.6186 0.632257 17.0404C0.210752 17.4622 0 17.9581 0 18.5281ZM0 11.141C0 11.7566 0.205056 12.2354 0.615169 12.5774C1.04806 12.965 1.56071 13.1588 2.15309 13.1588H52.4944C54.2943 13.1588 55.8322 12.5204 57.1081 11.2436C58.384 9.96678 59.022 8.4278 59.022 6.62661C59.022 4.82542 58.384 3.29214 57.1081 2.02675C55.8322 0.761357 54.2943 0.128662 52.4944 0.128662C50.7172 0.128662 49.1793 0.744257 47.8806 1.97545C47.4933 2.43144 47.2996 2.94444 47.2996 3.51444C47.2996 4.10723 47.4933 4.59173 47.8806 4.96792C48.2679 5.34412 48.7578 5.53222 49.3502 5.53222C49.897 5.53222 50.3983 5.33842 50.8539 4.95082C51.2868 4.51763 51.8336 4.30103 52.4944 4.30103C53.1323 4.30103 53.6905 4.52333 54.169 4.96792C54.6475 5.41252 54.8867 5.96542 54.8867 6.62661C54.8867 7.28781 54.6475 7.8578 54.169 8.3366C53.6905 8.81539 53.1323 9.05479 52.4944 9.05479H2.15309C1.56071 9.05479 1.05376 9.25999 0.632257 9.67039C0.210752 10.0808 0 10.571 0 11.141ZM47.7097 40.4843C47.7097 41.4647 47.9034 42.4223 48.2907 43.3571C48.6781 44.2919 49.2818 45.1982 50.1021 46.076C50.9223 46.9538 52.09 47.6606 53.6051 48.1964C55.1202 48.7322 56.8917 49.0001 58.9195 49.0001C63.3168 49.0001 66.5179 48.1223 68.5229 46.3667C70.5279 44.6111 71.5304 42.2399 71.5304 39.2532C71.5304 37.9308 71.1602 36.7224 70.4197 35.628C69.6792 34.5336 68.7166 33.918 67.5318 33.7812V33.7128C69.1039 33.4392 70.4083 32.7324 71.445 31.5924C72.4817 30.4524 73 29.0844 73 27.4884C73 26.3713 72.7949 25.3795 72.3848 24.5131C71.9747 23.6467 71.445 22.9399 70.7956 22.3927C70.1463 21.8455 69.3659 21.3952 68.4546 21.0418C67.5432 20.6884 66.6262 20.4433 65.7034 20.3065C64.7807 20.1697 63.8066 20.1013 62.7814 20.1013C59.4093 20.1013 56.6411 20.9164 54.4766 22.5466C52.3121 24.1768 50.9792 26.6221 50.478 29.8824H57.8942C58.0537 28.7652 58.5151 27.8931 59.2783 27.2661C60.0416 26.6392 60.9928 26.3257 62.132 26.3257C63.1801 26.3257 64.006 26.548 64.6098 26.9925C65.2136 27.4371 65.5154 28.047 65.5154 28.8222C65.5154 30.5322 63.9775 31.3872 60.9017 31.3872H59.1929L58.1334 36.483H59.7397C62.2232 36.483 63.4649 37.338 63.4649 39.048C63.4649 40.1879 63.0548 41.0657 62.2345 41.6813C61.4143 42.2969 60.4118 42.6047 59.2271 42.6047C57.8372 42.6047 56.8233 42.1943 56.1854 41.3735C55.5702 40.5983 55.3196 39.5154 55.4335 38.1246H47.8806C47.7667 38.8086 47.7097 39.5952 47.7097 40.4843Z" fill="#5B5959"/>
</svg>
